<?xml version="1.0" encoding="utf-8"?>
<!-- Generator: Adobe Illustrator 16.0.4, SVG Export Plug-In . SVG Version: 6.00 Build 0)  -->
<!DOCTYPE svg PUBLIC "-//W3C//DTD SVG 1.1//EN" "http://www.w3.org/Graphics/SVG/1.1/DTD/svg11.dtd">
<svg version="1.1" id="Layer_1" xmlns="http://www.w3.org/2000/svg" xmlns:xlink="http://www.w3.org/1999/xlink" x="0px" y="0px"
	 width="65.443px" height="72.5px" viewBox="0 0 65.443 72.5" enable-background="new 0 0 65.443 72.5" xml:space="preserve">
<g id="STUDIO">
	<rect x="-85.443" y="73.75" fill="none" width="65.441" height="13"/>
	
		<text transform="matrix(1 0 0 1 -81.324 84.6299)" display="none" fill="#FF715A" enable-background="new    " font-family="'HeroWorship'" font-size="17">STUDIO</text>
	<rect x="-85.443" y="77.75" fill="none" width="65.441" height="9"/>
	
		<text transform="matrix(1 0 0 1 -76.7742 85.3564)" display="none" fill="#FF715A" enable-background="new    " font-family="'TeknoItalic'" font-size="15" letter-spacing="3">STUDIO</text>
	<rect x="-85.443" y="73.75" fill="none" width="65.441" height="13"/>
	
		<text transform="matrix(1 0 0 1 -78.3572 84.0039)" display="none" fill="#FF715A" enable-background="new    " font-family="'Hindsight2020'" font-size="15">STUDIO</text>
</g>
<g id="S" display="none">
	<g display="inline">
		
			<rect x="-35.603" y="64.656" transform="matrix(-0.4369 -0.8995 0.8995 -0.4369 -97.5012 75.7609)" width="21.131" height="7.484"/>
		
			<rect x="-35.347" y="74.243" transform="matrix(-0.4369 -0.8995 0.8995 -0.4369 -114.4975 84.2983)" width="8.965" height="7.486"/>
		<path d="M-32.641,82.896l15.217-7.394c3.134,6.448-4.167,15.741-9.826,18.49L-32.641,82.896z"/>
		<path d="M-17.615,53.521l-15.218,7.393c-3.134-6.45,4.167-15.741,9.827-18.491L-17.615,53.521z"/>
		<rect x="-23.675" y="55.09" transform="matrix(0.4369 0.8995 -0.8995 0.4369 42.1133 50.3905)" width="8.965" height="7.487"/>
	</g>
	<g display="inline">
		<rect x="-18.886" y="64.375" width="7.485" height="24.215"/>
		<rect x="-28.319" y="76.188" width="7.483" height="12.401"/>
		<path d="M-28.319,87.746H-11.4c0,7.171-10.626,12.338-16.919,12.338V87.746z"/>
		<rect x="-9.452" y="63.922" width="7.485" height="12.401"/>
		<path d="M-1.967,64.766h-16.919c0-7.172,10.626-12.339,16.919-12.339V64.766z"/>
	</g>
	<path display="inline" fill="#FF715A" d="M5.969,21.374l2.582-2.301l2.33,5.303l5.359-4.957l-0.043-0.03
		C16.175,8.688,7.495,0.018-3.214,0.018c-0.694,0-1.384,0.041-2.062,0.112h-25.667l22.467,51.185l-2.602,2.246l-2.731-6.07
		l-5.426,5.02h-0.093C-19.326,63.275-10.597,72,0.166,72c0.236,0,0.463-0.025,0.695-0.037L0.879,72h27.579L5.969,21.374z"/>
	<path display="inline" fill="#FF715A" d="M-20,36.013"/>
	<polygon display="inline" fill="#FF715A" points="5.593,26.561 13.361,32.515 23.395,21.525 -3.229,0 -26.007,17.678 
		-11.781,45.452 -19.71,39.375 -30.365,51.003 -3.23,72 19.547,54.322 	"/>
</g>
<g id="M">
	<polygon fill="none" stroke="#000000" stroke-width="2" stroke-miterlimit="10" points="64.134,41.5 46.52,1.441 32.722,14.215 
		18.925,1.441 1.309,41.5 18.762,57.741 18.762,36.895 23.388,40.916 23.388,61.762 32.564,70.585 42.108,61.602 42.108,40.841 
		46.565,36.895 46.565,57.688 	"/>
</g>
</svg>
