<?xml version="1.0" encoding="utf-8"?>
<!-- Generator: Adobe Illustrator 16.0.4, SVG Export Plug-In . SVG Version: 6.00 Build 0)  -->
<!DOCTYPE svg PUBLIC "-//W3C//DTD SVG 1.1//EN" "http://www.w3.org/Graphics/SVG/1.1/DTD/svg11.dtd">
<svg version="1.1" xmlns="http://www.w3.org/2000/svg" xmlns:xlink="http://www.w3.org/1999/xlink" x="0px" y="0px"
	 width="283.465px" height="283.465px" viewBox="0 0 283.465 283.465" enable-background="new 0 0 283.465 283.465"
	 xml:space="preserve">
<g id="Layer_2">
</g>
<g id="Layer_1">
	<g>
		<polyline fill="#FFFFFF" points="1477.5,2817.919 1007.369,2378.114 537.233,1938.304 1007.369,1498.488 1477.502,1058.686 		"/>
		<path className="path" fill="#231F20" d="M1477.461,3006.886c-46.258,0-92.609-16.875-129.055-50.971L408.139,2076.3
			c-38.194-35.732-59.872-85.693-59.872-137.996c0-52.302,21.677-102.265,59.871-137.995l470.135-439.816l470.136-439.804
			c76.213-71.296,195.795-67.31,267.092,8.904c71.295,76.213,67.309,195.793-8.904,267.089l-792.758,741.62l792.756,741.621
			c76.215,71.297,80.199,190.877,8.902,267.09C1578.295,2986.78,1527.935,3006.886,1477.461,3006.886z"/>
	</g>
	<g>
		<polyline fill="#FFFFFF" points="3505.696,2817.919 3975.829,2378.114 4445.964,1938.304 3975.829,1498.488 3505.696,1058.686 		
			"/>
		<path className="path" fill="#231F20" d="M3505.733,3006.886c-50.477,0-100.828-20.1-138.035-59.873c-71.295-76.213-67.311-195.793,8.904-267.09
			l792.756-741.621l-322.625-301.818l-470.131-439.802c-76.215-71.296-80.199-190.876-8.904-267.09
			c71.301-76.213,190.881-80.199,267.092-8.902l470.131,439.803l470.137,439.816c38.197,35.73,59.873,85.693,59.873,137.995
			c0,52.303-21.678,102.264-59.873,137.996l-940.268,879.615C3598.349,2990.007,3551.987,3006.886,3505.733,3006.886z"/>
	</g>
	<path className="path" fill="#231F20" d="M2070.881,3316.009c-21.896,0-44.15-3.832-65.875-11.914c-97.811-36.396-147.6-145.191-111.203-243.004
		l824.58-2216.059c36.393-97.811,145.186-147.601,243-111.205c97.813,36.395,147.603,145.19,111.208,243.002l-824.583,2216.058
		C2219.697,3268.976,2147.562,3316.009,2070.881,3316.009z"/>
	<g>
		
			<path className="path" fill="none" stroke="#000000" stroke-width="10" stroke-linecap="round" stroke-linejoin="round" stroke-miterlimit="2.6131" d="
			M269.045,24.801c-11.817-11.817-27.584-9.687-35.643-1.614c-25.761,24.318-98.281,103.665-142.609,151.582
			c-6.311,6.31-4.465,17.132,3.344,24.946c7.809,7.805,18.634,9.649,24.94,3.339C166.994,158.726,246.342,86.205,270.66,60.449
			C278.726,52.385,280.863,36.619,269.045,24.801L269.045,24.801z M83.767,186.67c-43.04,5.535-21.402,43.22-77.612,54.18
			c53.235,32.833,97.507,17.648,101.225-33.11"/>
		
			<path className="path" fill="none" stroke="#000000" stroke-width="10" stroke-linecap="round" stroke-linejoin="round" stroke-miterlimit="2.6131" d="
			M115.277,148.209c-6.771,6.771-4.797,18.395,3.589,26.772c8.377,8.386,20,10.36,26.767,3.588"/>
	</g>
</g>
</svg>
